<?xml version="1.0" encoding="UTF-8" standalone="no"?>
<!DOCTYPE svg PUBLIC "-//W3C//DTD SVG 1.1//EN"
 "http://www.w3.org/Graphics/SVG/1.1/DTD/svg11.dtd">
<!-- Generated by graphviz version 12.2.1 (20241206.2353)
 -->
<!-- Title: MicromouseController Pages: 1 -->
<svg width="288pt" height="83pt"
 viewBox="0.00 0.00 287.75 82.50" xmlns="http://www.w3.org/2000/svg" xmlns:xlink="http://www.w3.org/1999/xlink">
<g id="graph0" class="graph" transform="scale(1 1) rotate(0) translate(4 78.5)">
<title>MicromouseController</title>
<!-- Node1 -->
<g id="Node000001" class="node">
<title>Node1</title>
<g id="a_Node000001"><a xlink:title=" ">
<polygon fill="#999999" stroke="#666666" points="203.62,-74.5 92.38,-74.5 92.38,-55.25 203.62,-55.25 203.62,-74.5"/>
<text text-anchor="middle" x="148" y="-61" font-family="Helvetica,sans-Serif" font-size="10.00">MicromouseController</text>
</a>
</g>
</g>
<!-- Node2 -->
<g id="Node000002" class="node">
<title>Node2</title>
<g id="a_Node000002"><a xlink:href="class_flood_fill_micromouse_controller.html" target="_top" xlink:title=" ">
<polygon fill="white" stroke="#bfbfbf" points="148,-19.25 0,-19.25 0,0 148,0 148,-19.25"/>
<text text-anchor="middle" x="74" y="-5.75" font-family="Helvetica,sans-Serif" font-size="10.00">FloodFillMicromouseController</text>
</a>
</g>
</g>
<!-- Node1&#45;&gt;Node2 -->
<g id="edge1_Node000001_Node000002" class="edge">
<title>Node1&#45;&gt;Node2</title>
<g id="a_edge1_Node000001_Node000002"><a xlink:title=" ">
<path fill="none" stroke="#63b8ff" d="M126.24,-48.22C113.25,-38.87 97.22,-27.33 86.37,-19.52"/>
<polygon fill="#63b8ff" stroke="#63b8ff" points="124.06,-50.96 134.22,-53.96 128.15,-45.28 124.06,-50.96"/>
</a>
</g>
</g>
<!-- Node3 -->
<g id="Node000003" class="node">
<title>Node3</title>
<g id="a_Node000003"><a xlink:href="class_wall_follower_controller.html" target="_top" xlink:title=" ">
<polygon fill="white" stroke="#bfbfbf" points="279.75,-19.25 166.25,-19.25 166.25,0 279.75,0 279.75,-19.25"/>
<text text-anchor="middle" x="223" y="-5.75" font-family="Helvetica,sans-Serif" font-size="10.00">WallFollowerController</text>
</a>
</g>
</g>
<!-- Node1&#45;&gt;Node3 -->
<g id="edge2_Node000001_Node000003" class="edge">
<title>Node1&#45;&gt;Node3</title>
<g id="a_edge2_Node000001_Node000003"><a xlink:title=" ">
<path fill="none" stroke="#63b8ff" d="M169.99,-48.26C183.07,-38.97 199.21,-27.52 210.21,-19.7"/>
<polygon fill="#63b8ff" stroke="#63b8ff" points="168.08,-45.32 161.96,-53.97 172.14,-51.03 168.08,-45.32"/>
</a>
</g>
</g>
</g>
</svg>
