<?xml version="1.0" encoding="UTF-8" standalone="no"?>
<!DOCTYPE svg PUBLIC "-//W3C//DTD SVG 1.1//EN"
 "http://www.w3.org/Graphics/SVG/1.1/DTD/svg11.dtd">
<!-- Generated by graphviz version 12.2.1 (20241206.2353)
 -->
<!-- Title: MazeGenerator Pages: 1 -->
<svg width="407pt" height="83pt"
 viewBox="0.00 0.00 407.00 82.50" xmlns="http://www.w3.org/2000/svg" xmlns:xlink="http://www.w3.org/1999/xlink">
<g id="graph0" class="graph" transform="scale(1 1) rotate(0) translate(4 78.5)">
<title>MazeGenerator</title>
<!-- Node1 -->
<g id="Node000001" class="node">
<title>Node1</title>
<g id="a_Node000001"><a xlink:title=" ">
<polygon fill="#999999" stroke="#666666" points="255,-74.5 172.25,-74.5 172.25,-55.25 255,-55.25 255,-74.5"/>
<text text-anchor="middle" x="213.62" y="-61" font-family="Helvetica,sans-Serif" font-size="10.00">MazeGenerator</text>
</a>
</g>
</g>
<!-- Node2 -->
<g id="Node000002" class="node">
<title>Node2</title>
<g id="a_Node000002"><a xlink:href="class_aldous_broder_maze_generator.html" target="_top" xlink:title=" ">
<polygon fill="white" stroke="#bfbfbf" points="141.25,-19.25 0,-19.25 0,0 141.25,0 141.25,-19.25"/>
<text text-anchor="middle" x="70.62" y="-5.75" font-family="Helvetica,sans-Serif" font-size="10.00">AldousBroderMazeGenerator</text>
</a>
</g>
</g>
<!-- Node1&#45;&gt;Node2 -->
<g id="edge1_Node000001_Node000002" class="edge">
<title>Node1&#45;&gt;Node2</title>
<g id="a_edge1_Node000001_Node000002"><a xlink:title=" ">
<path fill="none" stroke="#63b8ff" d="M178.84,-50.92C152.88,-41.25 118.05,-28.29 95,-19.7"/>
<polygon fill="#63b8ff" stroke="#63b8ff" points="177.36,-54.1 187.95,-54.31 179.8,-47.54 177.36,-54.1"/>
</a>
</g>
</g>
<!-- Node3 -->
<g id="Node000003" class="node">
<title>Node3</title>
<g id="a_Node000003"><a xlink:href="class_prims_maze_generator.html" target="_top" xlink:title=" ">
<polygon fill="white" stroke="#bfbfbf" points="267.75,-19.25 159.5,-19.25 159.5,0 267.75,0 267.75,-19.25"/>
<text text-anchor="middle" x="213.62" y="-5.75" font-family="Helvetica,sans-Serif" font-size="10.00">PrimsMazeGenerator</text>
</a>
</g>
</g>
<!-- Node1&#45;&gt;Node3 -->
<g id="edge2_Node000001_Node000003" class="edge">
<title>Node1&#45;&gt;Node3</title>
<g id="a_edge2_Node000001_Node000003"><a xlink:title=" ">
<path fill="none" stroke="#63b8ff" d="M213.62,-43.63C213.62,-35.34 213.62,-26.17 213.62,-19.61"/>
<polygon fill="#63b8ff" stroke="#63b8ff" points="210.13,-43.57 213.63,-53.57 217.13,-43.57 210.13,-43.57"/>
</a>
</g>
</g>
<!-- Node4 -->
<g id="Node000004" class="node">
<title>Node4</title>
<g id="a_Node000004"><a xlink:href="class_recursive_backtracker.html" target="_top" xlink:title=" ">
<polygon fill="white" stroke="#bfbfbf" points="399,-19.25 286.25,-19.25 286.25,0 399,0 399,-19.25"/>
<text text-anchor="middle" x="342.62" y="-5.75" font-family="Helvetica,sans-Serif" font-size="10.00">RecursiveBacktracker</text>
</a>
</g>
</g>
<!-- Node1&#45;&gt;Node4 -->
<g id="edge3_Node000001_Node000004" class="edge">
<title>Node1&#45;&gt;Node4</title>
<g id="a_edge3_Node000001_Node000004"><a xlink:title=" ">
<path fill="none" stroke="#63b8ff" d="M245.95,-50.53C269.26,-40.91 300.12,-28.17 320.63,-19.7"/>
<polygon fill="#63b8ff" stroke="#63b8ff" points="244.82,-47.21 236.91,-54.26 247.49,-53.68 244.82,-47.21"/>
</a>
</g>
</g>
</g>
</svg>
