<?xml version="1.0" encoding="UTF-8" standalone="no"?>
<!DOCTYPE svg PUBLIC "-//W3C//DTD SVG 1.1//EN"
 "http://www.w3.org/Graphics/SVG/1.1/DTD/svg11.dtd">
<!-- Generated by graphviz version 12.2.1 (20241206.2353)
 -->
<!-- Title: Graphical Class Hierarchy Pages: 1 -->
<svg width="268pt" height="101pt"
 viewBox="0.00 0.00 268.00 101.25" xmlns="http://www.w3.org/2000/svg" xmlns:xlink="http://www.w3.org/1999/xlink">
<g id="graph0" class="graph" transform="scale(1 1) rotate(0) translate(4 97.25)">
<title>Graphical Class Hierarchy</title>
<!-- Node0 -->
<g id="Node000000" class="node">
<title>Node0</title>
<g id="a_Node000000"><a xlink:href="class_maze_generator.html" target="_top" xlink:title=" ">
<polygon fill="white" stroke="#666666" points="82.75,-56.25 0,-56.25 0,-37 82.75,-37 82.75,-56.25"/>
<text text-anchor="middle" x="41.38" y="-42.75" font-family="Helvetica,sans-Serif" font-size="10.00">MazeGenerator</text>
</a>
</g>
</g>
<!-- Node1 -->
<g id="Node000001" class="node">
<title>Node1</title>
<g id="a_Node000001"><a xlink:href="class_aldous_broder_maze_generator.html" target="_top" xlink:title=" ">
<polygon fill="white" stroke="#666666" points="260,-93.25 118.75,-93.25 118.75,-74 260,-74 260,-93.25"/>
<text text-anchor="middle" x="189.38" y="-79.75" font-family="Helvetica,sans-Serif" font-size="10.00">AldousBroderMazeGenerator</text>
</a>
</g>
</g>
<!-- Node0&#45;&gt;Node1 -->
<g id="edge1_Node000000_Node000001" class="edge">
<title>Node0&#45;&gt;Node1</title>
<g id="a_edge1_Node000000_Node000001"><a xlink:title=" ">
<path fill="none" stroke="#63b8ff" d="M93.24,-59.52C111.35,-64.11 131.47,-69.2 148.53,-73.53"/>
<polygon fill="#63b8ff" stroke="#63b8ff" points="94.29,-56.17 83.74,-57.11 92.57,-62.96 94.29,-56.17"/>
</a>
</g>
</g>
<!-- Node2 -->
<g id="Node000002" class="node">
<title>Node2</title>
<g id="a_Node000002"><a xlink:href="class_prims_maze_generator.html" target="_top" xlink:title=" ">
<polygon fill="white" stroke="#666666" points="243.5,-56.25 135.25,-56.25 135.25,-37 243.5,-37 243.5,-56.25"/>
<text text-anchor="middle" x="189.38" y="-42.75" font-family="Helvetica,sans-Serif" font-size="10.00">PrimsMazeGenerator</text>
</a>
</g>
</g>
<!-- Node0&#45;&gt;Node2 -->
<g id="edge2_Node000000_Node000002" class="edge">
<title>Node0&#45;&gt;Node2</title>
<g id="a_edge2_Node000000_Node000002"><a xlink:title=" ">
<path fill="none" stroke="#63b8ff" d="M94.29,-46.62C107.44,-46.62 121.59,-46.62 134.82,-46.62"/>
<polygon fill="#63b8ff" stroke="#63b8ff" points="94.56,-43.13 84.56,-46.63 94.56,-50.13 94.56,-43.13"/>
</a>
</g>
</g>
<!-- Node3 -->
<g id="Node000003" class="node">
<title>Node3</title>
<g id="a_Node000003"><a xlink:href="class_recursive_backtracker.html" target="_top" xlink:title=" ">
<polygon fill="white" stroke="#666666" points="245.75,-19.25 133,-19.25 133,0 245.75,0 245.75,-19.25"/>
<text text-anchor="middle" x="189.38" y="-5.75" font-family="Helvetica,sans-Serif" font-size="10.00">RecursiveBacktracker</text>
</a>
</g>
</g>
<!-- Node0&#45;&gt;Node3 -->
<g id="edge3_Node000000_Node000003" class="edge">
<title>Node0&#45;&gt;Node3</title>
<g id="a_edge3_Node000000_Node000003"><a xlink:title=" ">
<path fill="none" stroke="#63b8ff" d="M93.24,-33.73C111.35,-29.14 131.47,-24.05 148.53,-19.72"/>
<polygon fill="#63b8ff" stroke="#63b8ff" points="92.57,-30.29 83.74,-36.14 94.29,-37.08 92.57,-30.29"/>
</a>
</g>
</g>
</g>
</svg>
