<?xml version="1.0" encoding="UTF-8" standalone="no"?>
<!DOCTYPE svg PUBLIC "-//W3C//DTD SVG 1.1//EN"
 "http://www.w3.org/Graphics/SVG/1.1/DTD/svg11.dtd">
<!-- Generated by graphviz version 12.2.1 (20241206.2353)
 -->
<!-- Title: Graphical Class Hierarchy Pages: 1 -->
<svg width="303pt" height="64pt"
 viewBox="0.00 0.00 303.25 64.25" xmlns="http://www.w3.org/2000/svg" xmlns:xlink="http://www.w3.org/1999/xlink">
<g id="graph0" class="graph" transform="scale(1 1) rotate(0) translate(4 60.25)">
<title>Graphical Class Hierarchy</title>
<!-- Node0 -->
<g id="Node000000" class="node">
<title>Node0</title>
<g id="a_Node000000"><a xlink:href="class_micromouse_controller.html" target="_top" xlink:title=" ">
<polygon fill="white" stroke="#666666" points="111.25,-37.25 0,-37.25 0,-18 111.25,-18 111.25,-37.25"/>
<text text-anchor="middle" x="55.62" y="-23.75" font-family="Helvetica,sans-Serif" font-size="10.00">MicromouseController</text>
</a>
</g>
</g>
<!-- Node1 -->
<g id="Node000001" class="node">
<title>Node1</title>
<g id="a_Node000001"><a xlink:href="class_flood_fill_micromouse_controller.html" target="_top" xlink:title=" ">
<polygon fill="white" stroke="#666666" points="295.25,-56.25 147.25,-56.25 147.25,-37 295.25,-37 295.25,-56.25"/>
<text text-anchor="middle" x="221.25" y="-42.75" font-family="Helvetica,sans-Serif" font-size="10.00">FloodFillMicromouseController</text>
</a>
</g>
</g>
<!-- Node0&#45;&gt;Node1 -->
<g id="edge4_Node000000_Node000001" class="edge">
<title>Node0&#45;&gt;Node1</title>
<g id="a_edge4_Node000000_Node000001"><a xlink:title=" ">
<path fill="none" stroke="#63b8ff" d="M122.93,-35.32C130.81,-36.24 138.88,-37.18 146.85,-38.1"/>
<polygon fill="#63b8ff" stroke="#63b8ff" points="123.41,-31.86 113.07,-34.18 122.6,-38.81 123.41,-31.86"/>
</a>
</g>
</g>
<!-- Node2 -->
<g id="Node000002" class="node">
<title>Node2</title>
<g id="a_Node000002"><a xlink:href="class_wall_follower_controller.html" target="_top" xlink:title=" ">
<polygon fill="white" stroke="#666666" points="278,-19.25 164.5,-19.25 164.5,0 278,0 278,-19.25"/>
<text text-anchor="middle" x="221.25" y="-5.75" font-family="Helvetica,sans-Serif" font-size="10.00">WallFollowerController</text>
</a>
</g>
</g>
<!-- Node0&#45;&gt;Node2 -->
<g id="edge5_Node000000_Node000002" class="edge">
<title>Node0&#45;&gt;Node2</title>
<g id="a_edge5_Node000000_Node000002"><a xlink:title=" ">
<path fill="none" stroke="#63b8ff" d="M122.87,-20.34C136.53,-18.83 150.79,-17.27 164.06,-15.81"/>
<polygon fill="#63b8ff" stroke="#63b8ff" points="122.63,-16.84 113.07,-21.42 123.39,-23.8 122.63,-16.84"/>
</a>
</g>
</g>
</g>
</svg>
