<?xml version="1.0" encoding="UTF-8" standalone="no"?>
<!DOCTYPE svg PUBLIC "-//W3C//DTD SVG 1.1//EN"
 "http://www.w3.org/Graphics/SVG/1.1/DTD/svg11.dtd">
<!-- Generated by graphviz version 12.2.1 (20241206.2353)
 -->
<!-- Title: Graphical Class Hierarchy Pages: 1 -->
<svg width="181pt" height="64pt"
 viewBox="0.00 0.00 181.00 64.25" xmlns="http://www.w3.org/2000/svg" xmlns:xlink="http://www.w3.org/1999/xlink">
<g id="graph0" class="graph" transform="scale(1 1) rotate(0) translate(4 60.25)">
<title>Graphical Class Hierarchy</title>
<!-- Node0 -->
<g id="Node000000" class="node">
<title>Node0</title>
<g id="a_Node000000"><a xlink:title=" ">
<polygon fill="#e0e0e0" stroke="#999999" points="54.25,-37.25 0,-37.25 0,-18 54.25,-18 54.25,-37.25"/>
<text text-anchor="middle" x="27.12" y="-23.75" font-family="Helvetica,sans-Serif" font-size="10.00">QWidget</text>
</a>
</g>
</g>
<!-- Node1 -->
<g id="Node000001" class="node">
<title>Node1</title>
<g id="a_Node000001"><a xlink:href="class_main_window.html" target="_top" xlink:title=" ">
<polygon fill="white" stroke="#666666" points="167.75,-56.25 95.5,-56.25 95.5,-37 167.75,-37 167.75,-56.25"/>
<text text-anchor="middle" x="131.62" y="-42.75" font-family="Helvetica,sans-Serif" font-size="10.00">MainWindow</text>
</a>
</g>
</g>
<!-- Node0&#45;&gt;Node1 -->
<g id="edge6_Node000000_Node000001" class="edge">
<title>Node0&#45;&gt;Node1</title>
<g id="a_edge6_Node000000_Node000001"><a xlink:title=" ">
<path fill="none" stroke="#63b8ff" d="M65.76,-34.6C75.33,-36.37 85.58,-38.28 95.05,-40.03"/>
<polygon fill="#63b8ff" stroke="#63b8ff" points="66.48,-31.18 56.01,-32.79 65.2,-38.06 66.48,-31.18"/>
</a>
</g>
</g>
<!-- Node2 -->
<g id="Node000002" class="node">
<title>Node2</title>
<g id="a_Node000002"><a xlink:href="class_maze_visualizer.html" target="_top" xlink:title=" ">
<polygon fill="white" stroke="#666666" points="173,-19.25 90.25,-19.25 90.25,0 173,0 173,-19.25"/>
<text text-anchor="middle" x="131.62" y="-5.75" font-family="Helvetica,sans-Serif" font-size="10.00">MazeVisualizer</text>
</a>
</g>
</g>
<!-- Node0&#45;&gt;Node2 -->
<g id="edge7_Node000000_Node000002" class="edge">
<title>Node0&#45;&gt;Node2</title>
<g id="a_edge7_Node000000_Node000002"><a xlink:title=" ">
<path fill="none" stroke="#63b8ff" d="M65.68,-21.03C73.59,-19.64 81.97,-18.17 89.99,-16.76"/>
<polygon fill="#63b8ff" stroke="#63b8ff" points="65.26,-17.55 56.01,-22.73 66.47,-24.45 65.26,-17.55"/>
</a>
</g>
</g>
</g>
</svg>
